HIERARCHY
ROOT Hips
{
	OFFSET 0.00000 0.00000 0.00000
	CHANNELS 6 Xposition Yposition Zposition Zrotation Yrotation Xrotation 
	JOINT LHipJoint
	{
		OFFSET 0 0 0
		CHANNELS 3 Zrotation Yrotation Xrotation
		JOINT LeftUpLeg
		{
			OFFSET 1.58895 -1.83665 0.71753
			CHANNELS 3 Zrotation Yrotation Xrotation
			JOINT LeftLeg
			{
				OFFSET 2.50528 -6.88321 0.00000
				CHANNELS 3 Zrotation Yrotation Xrotation
				JOINT LeftFoot
				{
					OFFSET 2.63244 -7.23257 0.00000
					CHANNELS 3 Zrotation Yrotation Xrotation
					JOINT LeftToeBase
					{
						OFFSET 0.23691 -0.65090 1.72750
						CHANNELS 3 Zrotation Yrotation Xrotation
						End Site
						{
							OFFSET 0.00000 -0.00000 0.92561
						}
					}
				}
			}
		}
	}
	JOINT RHipJoint
	{
		OFFSET 0 0 0
		CHANNELS 3 Zrotation Yrotation Xrotation
		JOINT RightUpLeg
		{
			OFFSET -1.51435 -1.83665 0.71753
			CHANNELS 3 Zrotation Yrotation Xrotation
			JOINT RightLeg
			{
				OFFSET -2.54551 -6.99375 0.00000
				CHANNELS 3 Zrotation Yrotation Xrotation
				JOINT RightFoot
				{
					OFFSET -2.66027 -7.30903 0.00000
					CHANNELS 3 Zrotation Yrotation Xrotation
					JOINT RightToeBase
					{
						OFFSET -0.22981 -0.63138 2.03959
						CHANNELS 3 Zrotation Yrotation Xrotation
						End Site
						{
							OFFSET -0.00000 -0.00000 1.07060
						}
					}
				}
			}
		}
	}
	JOINT LowerBack
	{
		OFFSET 0 0 0
		CHANNELS 3 Zrotation Yrotation Xrotation
		JOINT Spine
		{
			OFFSET -0.02651 1.86275 -0.11152
			CHANNELS 3 Zrotation Yrotation Xrotation
			JOINT Spine1
			{
				OFFSET 0.01019 1.86224 0.04087
				CHANNELS 3 Zrotation Yrotation Xrotation
				JOINT Neck
				{
					OFFSET 0 0 0
					CHANNELS 3 Zrotation Yrotation Xrotation
					JOINT Neck1
					{
						OFFSET -0.01926 1.80512 0.08867
						CHANNELS 3 Zrotation Yrotation Xrotation
						JOINT Head
						{
							OFFSET 0.05516 1.76451 -0.38475
							CHANNELS 3 Zrotation Yrotation Xrotation
							End Site
							{
								OFFSET 0.01592 1.82587 -0.14001
							}
						}
					}
				}
				JOINT LeftShoulder
				{
					OFFSET 0 0 0
					CHANNELS 3 Zrotation Yrotation Xrotation
					JOINT LeftArm
					{
						OFFSET 3.47116 1.51376 0.14491
						CHANNELS 3 Zrotation Yrotation Xrotation
						JOINT LeftForeArm
						{
							OFFSET 4.78095 -0.00000 0.00000
							CHANNELS 3 Zrotation Yrotation Xrotation
							JOINT LeftHand
							{
								OFFSET 3.58615 -0.00000 -0.00000
								CHANNELS 3 Zrotation Yrotation Xrotation
								JOINT LeftFingerBase
								{
									OFFSET 0 0 0
									CHANNELS 3 Zrotation Yrotation Xrotation
									JOINT LeftHandIndex1
									{
										OFFSET 0.65981 -0.00000 0.00000
										CHANNELS 3 Zrotation Yrotation Xrotation
										End Site
										{
											OFFSET 0.53196 -0.00000 0.00000
										}
									}
								}
								JOINT LThumb
								{
									OFFSET 0 0 0
									CHANNELS 3 Zrotation Yrotation Xrotation
									End Site
									{
										OFFSET 0.54008 -0.00000 0.54008
									}
								}
							}
						}
					}
				}
				JOINT RightShoulder
				{
					OFFSET 0 0 0
					CHANNELS 3 Zrotation Yrotation Xrotation
					JOINT RightArm
					{
						OFFSET -3.31725 1.61216 0.35156
						CHANNELS 3 Zrotation Yrotation Xrotation
						JOINT RightForeArm
						{
							OFFSET -4.48913 -0.00000 0.00000
							CHANNELS 3 Zrotation Yrotation Xrotation
							JOINT RightHand
							{
								OFFSET -3.70510 -0.00000 0.00000
								CHANNELS 3 Zrotation Yrotation Xrotation
								JOINT RightFingerBase
								{
									OFFSET 0 0 0
									CHANNELS 3 Zrotation Yrotation Xrotation
									JOINT RightHandIndex1
									{
										OFFSET -0.44914 -0.00000 0.00000
										CHANNELS 3 Zrotation Yrotation Xrotation
										End Site
										{
											OFFSET -0.36211 -0.00000 0.00000
										}
									}
								}
								JOINT RThumb
								{
									OFFSET 0 0 0
									CHANNELS 3 Zrotation Yrotation Xrotation
									End Site
									{
										OFFSET -0.36763 -0.00000 0.36763
									}
								}
							}
						}
					}
				}
			}
		}
	}
}
MOTION
Frames: 15
Frame Time: .0083333
-0.8569 18.6475 6.1076 -4.1034 -2.3500 10.7656 0.0000 0.0000 0.0000 -7.9497 -1.3772 -20.4627 2.7623 10.3000 29.9537 1.2313 -2.7280 -20.2511 9.0223 -16.8220 -56.1671 0.0000 0.0000 0.0000 18.4855 -0.4369 -2.7309 0.0000 0.0000 -0.0000 -0.5494 -5.6821 -17.2254 -0.2070 2.9296 -8.0828 4.8408 0.2631 11.7886 2.3139 1.1475 0.3888 -0.4859 0.4539 -6.1692 4.1200 -1.2791 -7.7127 -10.6047 -0.7919 13.5182 -4.0664 -0.8955 5.2506 0.0000 0.0000 0.0000 -62.4513 45.9574 69.9095 120.2237 -56.2500 -85.8450 -0.0000 0.0000 -16.4522 14.8145 -26.9076 -6.8254 -7.1250 0.0000 -0.0000 -9.1060 2.5846 8.7994 0.0000 0.0000 0.0000 60.4678 -53.8161 60.5427 -124.6762 54.9293 -89.5192 0.0000 -0.0000 -2.7397 0.5198 -24.1014 -0.2123 7.1250 -0.0000 -0.0000 29.9059 -51.4853 -5.1662
-0.8392 18.6466 6.1316 -4.2474 -2.3119 11.2334 0.0000 0.0000 0.0000 -7.8643 -1.8108 -20.6188 2.7204 10.2281 29.7186 1.2775 -2.4020 -20.7110 8.9818 -16.7960 -56.0272 0.0000 0.0000 0.0000 18.5705 -0.3101 -3.1630 0.0000 0.0000 -0.0000 -0.5456 -5.6796 -17.1797 -0.1946 2.8411 -7.8366 4.5552 0.3882 11.7982 2.1303 1.2857 -0.0564 -0.5429 0.5132 -6.6436 4.1759 -1.3602 -6.8963 -9.6230 -1.0509 13.1887 -3.7604 -0.9292 4.9954 0.0000 -0.0000 0.0000 -69.4822 48.1299 61.8742 120.5534 -56.1607 -86.1190 -0.0000 0.0000 -14.0715 12.4791 -26.1953 -5.5797 -7.1250 0.0000 -0.0000 -10.4602 3.6179 9.9494 0.0000 -0.0000 0.0000 69.0485 -55.8550 51.1961 -125.1304 54.7801 -89.8906 0.0000 -0.0000 -0.7413 0.5993 -24.5640 -0.2491 7.1250 -0.0000 -0.0000 30.2699 -51.8727 -5.5447
-0.8223 18.6466 6.1517 -4.3799 -2.0807 11.5932 0.0000 0.0000 0.0000 -7.7235 -2.3112 -20.7677 2.6968 10.1873 29.5853 1.3009 -2.2579 -20.9381 8.9559 -16.7792 -55.9373 0.0000 0.0000 0.0000 18.6838 -0.3509 -3.6752 -0.0003 -0.1120 0.3076 -0.5632 -5.5201 -17.2628 -0.2004 2.8825 -7.9518 4.2213 0.4306 11.8693 1.9917 1.3087 -0.4402 -0.5070 0.5211 -7.0959 4.3407 -1.4839 -6.0357 -8.8112 -1.3508 12.7672 -3.5284 -0.9927 4.7036 -0.0000 0.0000 0.0000 -77.2076 49.6157 53.1260 120.9297 -56.0571 -86.4313 -0.0000 0.0000 -11.5430 9.5478 -25.6774 -4.1685 -7.1250 0.0000 -0.0000 -12.1998 4.4840 11.4772 -0.0000 0.0000 0.0000 78.1902 -56.9631 41.3493 -125.5678 54.6338 -90.2476 0.0000 0.0000 1.4888 1.0384 -25.3769 -0.4450 7.1250 -0.0000 -0.0000 31.2015 -52.4979 -6.2525
-0.8098 18.6453 6.1675 -4.4873 -1.6870 11.7992 0.0000 0.0000 0.0000 -7.5637 -2.7224 -20.8914 2.6883 10.1725 29.5373 1.3064 -2.3000 -20.9744 8.9415 -16.7699 -55.8875 0.0000 0.0000 0.0000 18.8143 -0.7230 -3.7618 0.0000 -0.0000 0.0000 -0.5546 -5.5245 -17.1670 -0.1745 2.6912 -7.4203 3.8577 0.3993 11.9988 1.8862 1.2277 -0.7158 -0.4015 0.4843 -7.4721 3.9071 -1.6162 -5.4259 -7.6809 -1.6266 12.4557 -3.1032 -1.0658 4.5043 -0.0000 -0.0000 0.0000 -84.8476 50.2842 44.5624 121.8726 -55.7899 -87.2123 -0.0000 0.0000 -8.6048 6.8245 -23.8048 -2.7655 -7.1250 0.0000 -0.0000 -13.8146 6.5908 12.5162 -0.0000 -0.0000 0.0000 87.1520 -57.0521 31.4079 -126.4390 54.3345 -90.9567 0.0000 0.0000 2.9932 3.5817 -27.0454 -1.6303 7.1250 -0.0000 -0.0000 34.6967 -53.4567 -7.9681
-0.7981 18.6439 6.1800 -4.5797 -1.3442 11.9175 0.0000 0.0000 0.0000 -7.4442 -2.9759 -21.0079 2.6875 10.1712 29.5329 1.3014 -2.3310 -20.9264 8.9465 -16.7732 -55.9049 0.0000 0.0000 0.0000 18.9281 -1.0119 -3.9201 0.0000 -0.0000 0.0000 -0.5546 -5.4575 -17.1160 -0.1589 2.5685 -7.0796 3.5303 0.3723 12.0234 1.7834 1.1431 -0.8378 -0.3113 0.4509 -7.6230 3.4158 -1.7348 -4.8845 -6.5700 -1.8765 12.0923 -2.6762 -1.1353 4.3076 -0.0000 -0.0000 0.0000 -91.7299 50.1125 37.0363 122.4914 -55.6087 -87.7235 -0.0000 0.0000 -7.0912 5.4001 -22.5034 -2.0720 -7.1250 0.0000 -0.0000 -14.6913 7.9752 12.9556 -0.0000 -0.0000 0.0000 95.1382 -56.3495 22.5122 -126.8917 54.1747 -91.3242 0.0000 0.0000 5.0601 5.5513 -27.5000 -2.5696 7.1250 -0.0000 -0.0000 36.8212 -53.4735 -8.5848
-0.7831 18.6445 6.1919 -4.6388 -1.1081 11.9133 0.0000 0.0000 0.0000 -7.4089 -3.1360 -20.9918 2.6870 10.1703 29.5299 1.3031 -2.3257 -20.9412 8.9512 -16.7762 -55.9210 0.0000 0.0000 0.0000 18.9727 -1.2459 -3.9401 0.0000 0.0000 -0.0000 -0.5477 -5.4893 -17.0598 -0.1789 2.7247 -7.5133 3.2610 0.3936 11.9589 1.6639 1.1203 -0.8326 -0.2817 0.4488 -7.5832 2.9638 -1.8948 -4.3793 -5.6489 -2.1617 11.7189 -2.3187 -1.2354 4.1135 0.0000 0.0000 0.0000 -95.9028 49.3546 32.8766 122.3235 -55.6583 -87.5849 -0.0000 0.0000 -7.9139 5.7481 -21.4528 -2.1084 -7.1250 0.0000 -0.0000 -14.4900 8.9665 12.4710 0.0000 0.0000 0.0000 101.6038 -55.3704 15.5531 -127.2859 54.0332 -91.6435 0.0000 0.0000 6.4086 6.8783 -27.9756 -3.2387 7.1250 -0.0000 -0.0000 38.3814 -53.6152 -9.1848
-0.7670 18.6437 6.2021 -4.6969 -0.9157 11.7499 0.0000 0.0000 0.0000 -7.3903 -3.2439 -20.7740 2.6835 10.1641 29.5098 1.3133 -2.4022 -21.0087 8.9192 -16.7554 -55.8102 0.0000 0.0000 0.0000 19.0036 -1.4993 -3.7757 0.0000 0.0000 -0.0000 -0.5464 -5.4762 -17.0347 -0.1922 2.8237 -7.7882 3.0354 0.4700 11.9688 1.5600 1.1809 -0.8018 -0.2759 0.4858 -7.5556 2.5773 -2.0931 -3.9541 -4.7998 -2.5021 11.1766 -2.2084 -1.3516 4.3014 -0.0000 -0.0000 0.0000 -96.8986 48.9757 32.4526 122.4177 -55.6305 -87.6627 -0.0000 0.0000 -10.9672 6.7364 -20.6175 -2.3817 -7.1250 0.0000 -0.0000 -13.8833 9.7017 11.7034 -0.0000 -0.0000 0.0000 105.9899 -54.6514 11.2041 -127.5505 53.9369 -91.8575 0.0000 0.0000 6.7945 7.7366 -28.7022 -3.7330 7.1250 -0.0000 -0.0000 39.7334 -54.0341 -10.0369
-0.7534 18.6410 6.2084 -4.7786 -0.7577 11.4397 0.0000 0.0000 0.0000 -7.3496 -3.2692 -20.3981 2.6784 10.1554 29.4814 1.3203 -2.4910 -21.0469 8.9016 -16.7440 -55.7493 0.0000 0.0000 0.0000 19.0626 -1.7677 -3.4459 0.0000 0.0000 -0.0000 -0.5474 -5.4251 -17.0090 -0.1881 2.7931 -7.7032 2.8087 0.5744 12.1389 1.4869 1.2876 -0.7675 -0.2472 0.5446 -7.6155 2.3195 -2.2685 -3.6678 -4.3709 -2.7579 11.1883 -2.0186 -1.4655 4.2428 -0.0000 -0.0000 0.0000 -95.0767 48.9533 35.0411 122.6119 -55.5728 -87.8230 -0.0000 0.0000 -14.6057 7.3385 -19.9305 -2.5137 -7.1250 0.0000 -0.0000 -13.5118 10.3246 11.1956 -0.0000 -0.0000 0.0000 107.5245 -54.6172 10.4029 -127.4191 53.9848 -91.7512 0.0000 0.0000 6.5756 7.4802 -29.4195 -3.6902 7.1250 -0.0000 -0.0000 40.1041 -54.6479 -10.8033
-0.7406 18.6394 6.2103 -4.8437 -0.5746 11.0601 0.0000 0.0000 0.0000 -7.3287 -3.2909 -19.9797 2.6758 10.1507 29.4661 1.3208 -2.5064 -21.0477 8.9361 -16.7664 -55.8689 0.0000 0.0000 0.0000 19.1054 -2.0831 -3.0667 0.0000 0.0000 -0.0000 -0.5415 -5.4297 -16.9432 -0.1876 2.7894 -7.6929 2.5410 0.6240 12.3511 1.4539 1.3160 -0.6369 -0.1389 0.5693 -7.6000 2.0607 -2.3521 -3.9034 -3.9758 -2.8891 11.4490 -1.8552 -1.5245 4.3857 -0.0000 -0.0000 0.0000 -91.0912 48.9881 39.7844 122.8243 -55.5091 -87.9981 -0.0000 0.0000 -16.4613 7.9670 -19.5424 -2.6803 -7.1250 0.0000 -0.0000 -13.1165 10.6545 10.7585 -0.0000 -0.0000 0.0000 105.7305 -55.1101 13.5658 -127.0666 54.1122 -91.4659 0.0000 0.0000 6.0079 6.2869 -30.0648 -3.1591 7.1250 -0.0000 -0.0000 39.5840 -55.3885 -11.3878
-0.7232 18.6393 6.2091 -4.8606 -0.2745 10.7070 0.0000 0.0000 0.0000 -7.3548 -3.4525 -19.6089 2.6751 10.1495 29.4623 1.3198 -2.5148 -21.0380 8.9562 -16.7795 -55.9387 0.0000 0.0000 0.0000 19.0900 -2.5039 -2.7710 0.0000 -0.0000 0.0000 -0.5342 -5.4612 -16.8812 -0.1817 2.7455 -7.5709 2.2933 0.5815 12.4317 1.4254 1.2165 -0.3912 -0.0113 0.5334 -7.3883 1.8078 -2.3660 -4.5420 -3.5283 -2.9377 11.7617 -1.6822 -1.5419 4.6353 -0.0000 0.0000 0.0000 -84.9300 48.7234 46.7222 122.9427 -55.4734 -88.0957 -0.0000 0.0000 -16.3817 9.3533 -20.0943 -3.2389 -7.1250 0.0000 -0.0000 -12.2295 9.9959 10.1615 -0.0000 0.0000 0.0000 101.5876 -55.5796 19.1821 -127.1335 54.0882 -91.5201 0.0000 0.0000 5.2764 5.5475 -30.9679 -2.8611 7.1250 -0.0000 -0.0000 39.7138 -56.2475 -12.3119
-0.7033 18.6394 6.2057 -4.8891 0.0937 10.4012 0.0000 0.0000 0.0000 -7.3581 -3.7340 -19.2863 2.6746 10.1486 29.4593 1.3183 -2.5391 -21.0201 8.9388 -16.7682 -55.8782 0.0000 0.0000 0.0000 19.0805 -2.9653 -2.5579 0.0000 0.0000 -0.0000 -0.5208 -5.5209 -16.7668 -0.1819 2.7468 -7.5746 2.1069 0.4832 12.3217 1.3931 1.0440 -0.0737 0.0931 0.4609 -6.9915 1.7319 -2.3632 -5.1836 -3.2961 -2.9491 12.3194 -1.4522 -1.5566 4.4587 0.0000 0.0000 0.0000 -77.9720 47.8182 54.2507 123.2114 -55.3916 -88.3169 -0.0000 0.0000 -15.3539 10.6280 -21.2557 -3.8918 -7.1250 0.0000 -0.0000 -11.4304 8.7293 9.7649 0.0000 0.0000 0.0000 94.3355 -56.1763 27.9946 -126.3787 54.3556 -90.9077 0.0000 0.0000 4.4370 3.1130 -30.7870 -1.5946 7.1250 -0.0000 -0.0000 37.3056 -56.6044 -11.7387
-0.6861 18.6374 6.2014 -5.0049 0.3084 9.7057 0.0000 0.0000 0.0000 -7.3158 -3.8023 -18.5227 2.6723 10.1447 29.4465 1.3253 -2.5964 -21.0659 8.9242 -16.7587 -55.8275 0.0000 0.0000 0.0000 19.1136 -3.4071 -1.8921 0.0000 -0.0000 0.0000 -0.4990 -5.5872 -16.5566 -0.1938 2.8353 -7.8207 1.9096 0.4353 12.5505 1.4255 0.9493 0.3948 0.2544 0.4264 -6.6262 1.6989 -2.3606 -6.0215 -3.0063 -2.9833 12.6272 -1.3766 -1.5633 4.6990 -0.0000 -0.0000 0.0000 -70.6452 46.0523 62.1266 123.4574 -55.3160 -88.5193 -0.0000 0.0000 -14.6047 11.8767 -22.4881 -4.5990 -7.1250 0.0000 -0.0000 -10.6744 7.3751 9.3844 -0.0000 -0.0000 0.0000 86.2819 -56.1742 37.0658 -125.3480 54.7077 -90.0683 0.0000 0.0000 5.6381 -0.7123 -28.6368 0.3414 7.1250 -0.0000 -0.0000 31.9221 -55.5994 -8.9621
-0.6685 18.6355 6.2055 -5.1422 0.2394 9.0619 0.0000 0.0000 0.0000 -7.3011 -3.6486 -17.7703 2.6700 10.1407 29.4336 1.3408 -2.6292 -21.1862 8.9228 -16.7578 -55.8227 0.0000 0.0000 0.0000 19.1047 -3.5631 -1.1887 0.0000 -0.0000 0.0000 -0.4778 -5.6442 -16.3421 -0.2033 2.9030 -8.0088 1.6706 0.4486 12.4967 1.5132 0.9273 0.7887 0.4864 0.4281 -6.1832 1.4649 -2.3282 -6.5040 -2.6813 -2.9560 12.9911 -1.2488 -1.5435 4.9025 -0.0000 -0.0000 0.0000 -63.9922 43.9122 69.3776 123.5777 -55.2787 -88.6182 -0.0000 0.0000 -14.2872 12.8507 -23.4201 -5.1810 -7.1250 0.0000 -0.0000 -10.1019 6.3339 9.0714 -0.0000 -0.0000 0.0000 77.6054 -55.7636 45.8118 -125.6305 54.6127 -90.2987 0.0000 0.0000 5.1134 -1.7861 -27.0683 0.8130 7.1250 -0.0000 -0.0000 29.7415 -54.4613 -7.4084
-0.6484 18.6346 6.2062 -5.2486 0.1798 8.5364 0.0000 0.0000 0.0000 -7.3102 -3.5645 -17.1517 2.6663 10.1341 29.4121 1.3499 -2.6398 -21.2583 8.9204 -16.7562 -55.8143 0.0000 0.0000 0.0000 19.0541 -3.6834 -0.6318 0.0000 -0.0000 0.0000 -0.4594 -5.7155 -16.1715 -0.2111 2.9579 -8.1615 1.4025 0.4183 12.2284 1.6111 0.8361 1.3276 0.7584 0.3959 -5.4696 1.3621 -2.2530 -7.7269 -2.4644 -2.8756 13.7176 -1.1874 -1.5003 5.3422 -0.0000 -0.0000 0.0000 -58.6106 41.2603 75.2783 123.2579 -55.3774 -88.3552 -0.0000 0.0000 -14.5776 13.9193 -24.4045 -5.8466 -7.1250 0.0000 -0.0000 -9.4900 5.2159 8.7109 -0.0000 -0.0000 0.0000 68.3280 -54.4344 55.0552 -124.9678 54.8339 -89.7577 0.0000 0.0000 4.1615 -3.6246 -24.8313 1.5238 7.1250 -0.0000 -0.0000 26.5286 -52.8269 -5.4148
-0.6245 18.6358 6.2000 -5.3671 0.1212 8.1808 0.0000 0.0000 0.0000 -7.2922 -3.5307 -16.7566 2.6640 10.1301 29.3992 1.3539 -2.6123 -21.2969 8.9131 -16.7515 -55.7892 0.0000 0.0000 0.0000 19.0131 -3.7292 -0.2836 0.0000 -0.0000 0.0000 -0.4339 -5.8394 -15.9510 -0.2258 3.0584 -8.4414 1.2506 0.5007 11.7523 1.5873 0.9012 1.8237 0.8126 0.4342 -4.6861 1.8236 -2.3095 -8.9864 -2.4289 -3.0312 14.5745 -1.2934 -1.5523 5.8153 0.0000 0.0000 0.0000 -53.7306 38.5488 80.5335 122.4240 -55.6286 -87.6679 -0.0000 0.0000 -15.7068 15.4118 -26.1956 -6.9382 -7.1250 0.0000 -0.0000 -8.6958 3.2115 8.2926 0.0000 0.0000 0.0000 61.0940 -52.7988 62.3409 -124.8396 54.8760 -89.6528 0.0000 0.0000 2.6746 -5.2046 -23.8273 2.1074 7.1250 -0.0000 -0.0000 24.4468 -52.1945 -4.5531
